<svg width="80" height="80" viewBox="0 0 80 80" fill="none" xmlns="http://www.w3.org/2000/svg">
<g id="Calendar Icon" clip-path="url(#clip0_64_610)">
<g id="Mask group">
<mask id="mask0_64_610" style="mask-type:luminance" maskUnits="userSpaceOnUse" x="0" y="0" width="80" height="80">
<g id="Group">
<path id="bg" d="M80 0H0V80H80V0Z" fill="white"/>
<g id="Group_2">
<path id="path937" d="M19.5312 29.6875C17.8053 29.6875 16.4062 31.0866 16.4062 32.8125C16.4062 34.5384 17.8053 35.9375 19.5312 35.9375C21.2572 35.9375 22.6562 34.5384 22.6562 32.8125C22.6562 31.0866 21.2572 29.6875 19.5312 29.6875Z" fill="white"/>
<path id="path941" d="M33.125 29.6875C31.3991 29.6875 30 31.0866 30 32.8125C30 34.5384 31.3991 35.9375 33.125 35.9375C34.8509 35.9375 36.25 34.5384 36.25 32.8125C36.25 31.0866 34.8509 29.6875 33.125 29.6875Z" fill="white"/>
<path id="path945" d="M46.7187 29.6875C44.9928 29.6875 43.5938 31.0866 43.5938 32.8125C43.5938 34.5384 44.9928 35.9375 46.7187 35.9375C48.4447 35.9375 49.8437 34.5384 49.8437 32.8125C49.8437 31.0866 48.4447 29.6875 46.7187 29.6875Z" fill="white"/>
<path id="path949" d="M60.3125 29.6875C58.5866 29.6875 57.1875 31.0866 57.1875 32.8125C57.1875 34.5384 58.5866 35.9375 60.3125 35.9375C62.0384 35.9375 63.4375 34.5384 63.4375 32.8125C63.4375 31.0866 62.0384 29.6875 60.3125 29.6875Z" fill="white"/>
<path id="path953" d="M22.6562 46.4063C22.6562 44.6803 21.2572 43.2813 19.5312 43.2813C17.8053 43.2813 16.4062 44.6803 16.4062 46.4063C16.4062 48.1322 17.8053 49.5312 19.5312 49.5312C21.2572 49.5312 22.6562 48.1322 22.6562 46.4063Z" fill="white"/>
<path id="path957" d="M22.6562 60C22.6562 58.2741 21.2572 56.875 19.5312 56.875C17.8053 56.875 16.4062 58.2741 16.4062 60C16.4062 61.7259 17.8053 63.125 19.5312 63.125C21.2572 63.125 22.6562 61.7259 22.6562 60Z" fill="white"/>
<path id="path961" d="M36.25 46.4063C36.25 44.6803 34.8509 43.2813 33.125 43.2813C31.3991 43.2813 30 44.6803 30 46.4063C30 48.1322 31.3991 49.5312 33.125 49.5312C34.8509 49.5312 36.25 48.1322 36.25 46.4063Z" fill="white"/>
<path id="path965" d="M36.25 60C36.25 58.2741 34.8509 56.875 33.125 56.875C31.3991 56.875 30 58.2741 30 60C30 61.7259 31.3991 63.125 33.125 63.125C34.8509 63.125 36.25 61.7259 36.25 60Z" fill="white"/>
<path id="path969" d="M33.125 29.6875C31.3991 29.6875 30 31.0866 30 32.8125C30 34.5384 31.3991 35.9375 33.125 35.9375C34.8509 35.9375 36.25 34.5384 36.25 32.8125C36.25 31.0866 34.8509 29.6875 33.125 29.6875Z" fill="white"/>
<path id="path973" d="M36.25 46.4063C36.25 44.6803 34.8509 43.2813 33.125 43.2813C31.3991 43.2813 30 44.6803 30 46.4063C30 48.1322 31.3991 49.5312 33.125 49.5312C34.8509 49.5312 36.25 48.1322 36.25 46.4063Z" fill="white"/>
<path id="path977" d="M36.25 60C36.25 58.2741 34.8509 56.875 33.125 56.875C31.3991 56.875 30 58.2741 30 60C30 61.7259 31.3991 63.125 33.125 63.125C34.8509 63.125 36.25 61.7259 36.25 60Z" fill="white"/>
<path id="path989" d="M49.8437 46.4063C49.8437 44.6803 48.4447 43.2813 46.7187 43.2813C44.9928 43.2813 43.5938 44.6803 43.5938 46.4063C43.5938 48.1322 44.9928 49.5312 46.7187 49.5312C48.4447 49.5312 49.8437 48.1322 49.8437 46.4063Z" fill="white"/>
<path id="path993" d="M63.4375 46.4063C63.4375 44.6803 62.0384 43.2813 60.3125 43.2813C58.5866 43.2813 57.1875 44.6803 57.1875 46.4063C57.1875 48.1322 58.5866 49.5312 60.3125 49.5312C62.0384 49.5312 63.4375 48.1322 63.4375 46.4063Z" fill="white"/>
</g>
</g>
</mask>
<g mask="url(#mask0_64_610)">
<g id="Group_3">
<g id="g921">
<g id="g923">
<g id="Clip path group">
<mask id="mask1_64_610" style="mask-type:luminance" maskUnits="userSpaceOnUse" x="0" y="0" width="80" height="80">
<g id="clipPath929">
<path id="path927" d="M0 7.62939e-06H80V80H0V7.62939e-06Z" fill="white"/>
</g>
</mask>
<g mask="url(#mask1_64_610)">
<g id="g925">
<g id="g931">
<path id="path933" d="M38.75 76.8748H12.5C7.32234 76.8748 3.125 72.6774 3.125 67.4998V18.7498C3.125 13.5721 7.32234 9.37476 12.5 9.37476H67.5C72.6776 9.37476 76.875 13.5721 76.875 18.7498V40.9373" stroke="#4997D3" stroke-width="5" stroke-miterlimit="10" stroke-linecap="round" stroke-linejoin="round"/>
</g>
<g id="g935">
<path id="path937_2" d="M19.5312 29.6875C17.8053 29.6875 16.4062 31.0866 16.4062 32.8125C16.4062 34.5384 17.8053 35.9375 19.5312 35.9375C21.2572 35.9375 22.6562 34.5384 22.6562 32.8125C22.6562 31.0866 21.2572 29.6875 19.5312 29.6875Z" fill="#4997D3"/>
</g>
<g id="g939">
<path id="path941_2" d="M33.125 29.6875C31.3991 29.6875 30 31.0866 30 32.8125C30 34.5384 31.3991 35.9375 33.125 35.9375C34.8509 35.9375 36.25 34.5384 36.25 32.8125C36.25 31.0866 34.8509 29.6875 33.125 29.6875Z" fill="#4997D3"/>
</g>
<g id="g943">
<path id="path945_2" d="M46.7187 29.6875C44.9928 29.6875 43.5938 31.0866 43.5938 32.8125C43.5938 34.5384 44.9928 35.9375 46.7187 35.9375C48.4447 35.9375 49.8437 34.5384 49.8437 32.8125C49.8437 31.0866 48.4447 29.6875 46.7187 29.6875Z" fill="#4997D3"/>
</g>
<g id="g947">
<path id="path949_2" d="M60.3125 29.6875C58.5866 29.6875 57.1875 31.0866 57.1875 32.8125C57.1875 34.5384 58.5866 35.9375 60.3125 35.9375C62.0384 35.9375 63.4375 34.5384 63.4375 32.8125C63.4375 31.0866 62.0384 29.6875 60.3125 29.6875Z" fill="#4997D3"/>
</g>
<g id="g951">
<path id="path953_2" d="M22.6562 46.4063C22.6562 44.6803 21.2572 43.2813 19.5312 43.2813C17.8053 43.2813 16.4062 44.6803 16.4062 46.4063C16.4062 48.1322 17.8053 49.5312 19.5312 49.5312C21.2572 49.5312 22.6562 48.1322 22.6562 46.4063Z" fill="#4997D3"/>
</g>
<g id="g955">
<path id="path957_2" d="M22.6562 60C22.6562 58.2741 21.2572 56.875 19.5312 56.875C17.8053 56.875 16.4062 58.2741 16.4062 60C16.4062 61.7259 17.8053 63.125 19.5312 63.125C21.2572 63.125 22.6562 61.7259 22.6562 60Z" fill="#4997D3"/>
</g>
<g id="g959">
<path id="path961_2" d="M36.25 46.4063C36.25 44.6803 34.8509 43.2813 33.125 43.2813C31.3991 43.2813 30 44.6803 30 46.4063C30 48.1322 31.3991 49.5312 33.125 49.5312C34.8509 49.5312 36.25 48.1322 36.25 46.4063Z" fill="#4997D3"/>
</g>
<g id="g963">
<path id="path965_2" d="M36.25 60C36.25 58.2741 34.8509 56.875 33.125 56.875C31.3991 56.875 30 58.2741 30 60C30 61.7259 31.3991 63.125 33.125 63.125C34.8509 63.125 36.25 61.7259 36.25 60Z" fill="#4997D3"/>
</g>
<g id="g967">
<path id="path969_2" d="M33.125 29.6875C31.3991 29.6875 30 31.0866 30 32.8125C30 34.5384 31.3991 35.9375 33.125 35.9375C34.8509 35.9375 36.25 34.5384 36.25 32.8125C36.25 31.0866 34.8509 29.6875 33.125 29.6875Z" fill="#4997D3"/>
</g>
<g id="g971">
<path id="path973_2" d="M36.25 46.4063C36.25 44.6803 34.8509 43.2813 33.125 43.2813C31.3991 43.2813 30 44.6803 30 46.4063C30 48.1322 31.3991 49.5312 33.125 49.5312C34.8509 49.5312 36.25 48.1322 36.25 46.4063Z" fill="#4997D3"/>
</g>
<g id="g975">
<path id="path977_2" d="M36.25 60C36.25 58.2741 34.8509 56.875 33.125 56.875C31.3991 56.875 30 58.2741 30 60C30 61.7259 31.3991 63.125 33.125 63.125C34.8509 63.125 36.25 61.7259 36.25 60Z" fill="#4997D3"/>
</g>
<g id="g979">
<path id="path981" d="M19.5312 3.125V15.625" stroke="#4997D3" stroke-width="5" stroke-miterlimit="10" stroke-linecap="round" stroke-linejoin="round"/>
</g>
<g id="g983">
<path id="path985" d="M60.3125 15.625V3.125" stroke="#4997D3" stroke-width="5" stroke-miterlimit="10" stroke-linecap="round" stroke-linejoin="round"/>
</g>
<g id="g987">
<path id="path989_2" d="M49.8437 46.4063C49.8437 44.6803 48.4447 43.2813 46.7187 43.2813C44.9928 43.2813 43.5938 44.6803 43.5938 46.4063C43.5938 48.1322 44.9928 49.5312 46.7187 49.5312C48.4447 49.5312 49.8437 48.1322 49.8437 46.4063Z" fill="#4997D3"/>
</g>
<g id="g991">
<path id="path993_2" d="M63.4375 46.4063C63.4375 44.6803 62.0384 43.2813 60.3125 43.2813C58.5866 43.2813 57.1875 44.6803 57.1875 46.4063C57.1875 48.1322 58.5866 49.5312 60.3125 49.5312C62.0384 49.5312 63.4375 48.1322 63.4375 46.4063Z" fill="#4997D3"/>
</g>
<g id="g995">
<path id="path997" d="M39.8438 3.125V15.625" stroke="#4997D3" stroke-width="5" stroke-miterlimit="10" stroke-linecap="round" stroke-linejoin="round"/>
</g>
<g id="g999">
<path id="path1001" d="M44.2248 65.7899L54.1968 75.5213C56.2784 77.5027 59.609 77.2807 61.409 75.0407L76.8749 53.4374" stroke="#4997D3" stroke-width="5" stroke-miterlimit="10" stroke-linecap="round" stroke-linejoin="round"/>
</g>
</g>
</g>
</g>
</g>
</g>
</g>
</g>
</g>
</g>
<defs>
<clipPath id="clip0_64_610">
<rect width="80" height="80" fill="white"/>
</clipPath>
</defs>
</svg>
