<svg width="56" height="56" viewBox="0 0 56 56" fill="none" xmlns="http://www.w3.org/2000/svg">
<g id="Happy Icon" clip-path="url(#clip0_64_226)">
<g id="Group">
<g id="Group_2">
<path id="Vector" d="M47.799 8.20105C42.5106 2.91255 35.4791 0 28 0C20.5209 0 13.4894 2.91255 8.20105 8.20105C2.91244 13.4894 0 20.5209 0 28C0 35.4791 2.91244 42.5106 8.20105 47.799C13.4894 53.0875 20.5209 56 28 56C35.4791 56 42.5106 53.0875 47.799 47.799C53.0876 42.5106 56 35.4791 56 28C56 20.5209 53.0876 13.4894 47.799 8.20105ZM28 52.6667C14.3988 52.6667 3.33331 41.6012 3.33331 28C3.33331 14.3988 14.3988 3.33331 28 3.33331C41.6012 3.33331 52.6667 14.3988 52.6667 28C52.6667 41.6012 41.6012 52.6667 28 52.6667Z" fill="#4997D3"/>
</g>
</g>
<g id="Group_3">
<g id="Group_4">
<path id="Vector_2" d="M21.943 20.6058C19.2138 17.8763 14.7729 17.8766 12.0436 20.6058C11.3927 21.2566 11.3927 22.3119 12.0436 22.9628C12.6946 23.6136 13.75 23.6136 14.4008 22.9628C15.8305 21.5332 18.1567 21.5333 19.5862 22.9628C19.9117 23.2883 20.3382 23.4511 20.7646 23.4511C21.1911 23.4511 21.6178 23.2883 21.943 22.9628C22.5939 22.3119 22.5939 21.2567 21.943 20.6058Z" fill="#4997D3"/>
</g>
</g>
<g id="Group_5">
<g id="Group_6">
<path id="Vector_3" d="M43.9561 20.6058C41.2268 17.8766 36.7859 17.8763 34.0566 20.6058C33.4058 21.2566 33.4058 22.3119 34.0566 22.9628C34.7076 23.6136 35.763 23.6136 36.4138 22.9628C37.8433 21.5332 40.1695 21.5331 41.5993 22.9628C41.9248 23.2883 42.3512 23.4511 42.7777 23.4511C43.2041 23.4511 43.6308 23.2883 43.9561 22.9628C44.607 22.3119 44.607 21.2567 43.9561 20.6058Z" fill="#4997D3"/>
</g>
</g>
<g id="Group_7">
<g id="Group_8">
<path id="Vector_4" d="M42.7778 29.2223H13.2222C12.3017 29.2223 11.5556 29.9686 11.5556 30.8889C11.5556 39.9564 18.9326 47.3334 28 47.3334C37.0674 47.3334 44.4444 39.9564 44.4444 30.8889C44.4444 29.9684 43.6983 29.2223 42.7778 29.2223ZM28 44.0001C21.3349 44.0001 15.8154 39.0013 14.9943 32.5556H41.0058C40.1846 39.0013 34.6651 44.0001 28 44.0001Z" fill="#4997D3"/>
</g>
</g>
</g>
<defs>
<clipPath id="clip0_64_226">
<rect width="56" height="56" fill="white"/>
</clipPath>
</defs>
</svg>
