<svg width="100" height="100" viewBox="0 0 100 100" fill="none" xmlns="http://www.w3.org/2000/svg">
<g id="Luggage Icon">
<g id="g696">
<g id="g698">
<g id="Clip path group">
<mask id="mask0_64_678" style="mask-type:luminance" maskUnits="userSpaceOnUse" x="0" y="0" width="100" height="100">
<g id="clipPath704">
<path id="path702" d="M0 7.62939e-06H100V100H0V7.62939e-06Z" fill="white"/>
</g>
</mask>
<g mask="url(#mask0_64_678)">
<g id="g700">
<g id="g706">
<path id="path708" d="M28.5156 97.0703V91.2115" stroke="#4997D3" stroke-width="4" stroke-miterlimit="10" stroke-linecap="round" stroke-linejoin="round"/>
</g>
<g id="g710">
<path id="path712" d="M71.4844 97.0703V91.2115" stroke="#4997D3" stroke-width="4" stroke-miterlimit="10" stroke-linecap="round" stroke-linejoin="round"/>
</g>
<g id="g714">
<path id="path716" d="M40.2344 26.8787V7.61773C40.2344 5.02905 42.333 2.93023 44.9219 2.93023H55.0781C57.667 2.93023 59.7656 5.02905 59.7656 7.61773V26.8787" stroke="#4997D3" stroke-width="4" stroke-miterlimit="10" stroke-linecap="round" stroke-linejoin="round"/>
</g>
<g id="g718">
<path id="path720" d="M73.4375 26.8787H26.5625C24.4051 26.8787 22.6562 28.6275 22.6562 30.7849V87.3054C22.6562 89.4628 24.4051 91.2117 26.5625 91.2117H73.4375C75.5949 91.2117 77.3437 89.4628 77.3437 87.3054V30.7849C77.3437 28.6275 75.5949 26.8787 73.4375 26.8787Z" stroke="#4997D3" stroke-width="4" stroke-miterlimit="10" stroke-linecap="round" stroke-linejoin="round"/>
</g>
<g id="g722">
<path id="path724" d="M34.375 91.2117V26.8787" stroke="#4997D3" stroke-width="4" stroke-miterlimit="10" stroke-linecap="round" stroke-linejoin="round"/>
</g>
<g id="g726">
<path id="path728" d="M65.625 26.8787V91.2117" stroke="#4997D3" stroke-width="4" stroke-miterlimit="10" stroke-linecap="round" stroke-linejoin="round"/>
</g>
</g>
</g>
</g>
</g>
</g>
</g>
</svg>
