<svg width="80" height="80" viewBox="0 0 80 80" fill="none" xmlns="http://www.w3.org/2000/svg">
<g id="Plane Icon" clip-path="url(#clip0_64_697)">
<g id="g15">
<g id="g17">
<g id="Clip path group">
<mask id="mask0_64_697" style="mask-type:luminance" maskUnits="userSpaceOnUse" x="0" y="0" width="80" height="80">
<g id="clipPath23">
<path id="path21" d="M0 7.62939e-06H80V80H0V7.62939e-06Z" fill="white"/>
</g>
</mask>
<g mask="url(#mask0_64_697)">
<g id="g19">
<g id="g25">
<path id="path27" d="M72.6349 2.34376C69.4205 2.34376 66.3377 3.62032 64.0646 5.89344C52.6157 17.3422 17.4063 52.552 17.4063 52.552H7.36209C4.59069 52.552 2.34381 54.7989 2.34381 57.5705V57.573L14.8958 65.1042L22.4271 77.6562C23.7587 77.6562 25.0358 77.1278 25.9774 76.1852C26.919 75.2437 27.4479 73.9672 27.4479 72.6355V62.5938C27.4479 62.5938 62.6574 27.3839 74.1063 15.9352C76.3793 13.662 77.6563 10.5792 77.6563 7.36454V7.36204C77.6563 4.59048 75.4094 2.34376 72.638 2.34376H72.6354H72.6349Z" stroke="#4997D3" stroke-width="4" stroke-miterlimit="10" stroke-linecap="round" stroke-linejoin="round"/>
</g>
<g id="g29">
<path id="path31" d="M50.0417 19.9165C50.0417 19.9165 28.6704 14.8881 16.1746 11.9471C10.8771 10.7009 5.36291 12.8773 2.34431 17.4048C2.34384 17.406 2.34369 17.406 2.34369 17.406L34.9792 34.979" stroke="#4997D3" stroke-width="4" stroke-miterlimit="10" stroke-linecap="round" stroke-linejoin="round"/>
</g>
<g id="g33">
<path id="path35" d="M60.0833 29.9583C60.0833 29.9583 65.1119 51.3294 68.0521 63.8252C69.2986 69.1233 67.1225 74.6373 62.5946 77.6562H62.5938L45.0208 45.0208" stroke="#4997D3" stroke-width="4" stroke-miterlimit="10" stroke-linecap="round" stroke-linejoin="round"/>
</g>
</g>
</g>
</g>
</g>
</g>
</g>
<defs>
<clipPath id="clip0_64_697">
<rect width="80" height="80" fill="white"/>
</clipPath>
</defs>
</svg>
