<svg width="64" height="64" viewBox="0 0 64 64" fill="none" xmlns="http://www.w3.org/2000/svg">
<g id="Quote Icon">
<path id="Vector" d="M51.4667 16.8C54.1333 19.7333 55.7333 22.9333 55.7333 28.2666C55.7333 37.6 49.0667 45.8666 39.7333 50.1333L37.3333 46.6666C46.1333 41.8666 48 35.7333 48.5333 31.7333C47.2 32.5333 45.3333 32.8 43.4667 32.5333C38.6667 32 34.9333 28.2666 34.9333 23.2C34.9333 20.8 36 18.4 37.6 16.5333C39.4667 14.6666 41.6 13.8666 44.2667 13.8666C47.2 13.8666 49.8667 15.2 51.4667 16.8ZM24.8 16.8C27.4667 19.7333 29.0667 22.9333 29.0667 28.2666C29.0667 37.6 22.4 45.8666 13.0667 50.1333L10.6667 46.6666C19.4667 41.8666 21.3333 35.7333 21.8667 31.7333C20.5333 32.5333 18.6667 32.8 16.8 32.5333C12 32 8.26667 28.2666 8.26667 23.2C8.26667 20.8 9.33334 18.4 10.9333 16.5333C12.5333 14.6666 14.9333 13.8666 17.6 13.8666C20.5333 13.8666 23.2 15.2 24.8 16.8Z" fill="#4997D3"/>
</g>
</svg>
