<svg width="80" height="80" viewBox="0 0 80 80" fill="none" xmlns="http://www.w3.org/2000/svg">
<g id="Route Icon">
<g id="Group">
<path id="Vector" d="M61.7411 37.2375H18.2589C12.2863 37.2375 7.42744 32.3761 7.42744 26.4009C7.42744 20.4302 12.2863 15.5728 18.2589 15.5728H45.4365C46.9624 15.5728 48.1989 14.336 48.1989 12.8105C48.1989 11.2849 46.9624 10.0481 45.4365 10.0481H18.2589C9.24029 10.0481 1.90271 17.3838 1.90271 26.4009C1.90271 35.4225 9.24029 42.7623 18.2589 42.7623H61.7411C67.7137 42.7623 72.5725 47.6237 72.5725 53.5992C72.5725 59.57 67.7137 64.4273 61.7411 64.4273H34.3288C32.8033 64.4273 31.5665 65.6641 31.5665 67.1897C31.5665 68.7153 32.8033 69.9521 34.3288 69.9521H61.7411C70.7597 69.9521 78.0973 62.6163 78.0973 53.5992C78.0973 44.5773 70.7597 37.2375 61.7411 37.2375Z" fill="#4997D3"/>
<path id="Vector_2" d="M17.8692 47.8813C11.4579 47.8813 6.24222 53.0974 6.24222 59.5083C6.24222 69.4031 15.5208 78.7959 15.916 79.1908C16.4342 79.709 17.1366 79.9999 17.8696 79.9999C18.6022 79.9999 19.3049 79.709 19.8231 79.1908C20.218 78.7956 29.4962 69.4031 29.4962 59.5083C29.4955 53.0974 24.2801 47.8813 17.8692 47.8813ZM17.8692 73.0579C15.4836 70.1132 11.767 64.6924 11.767 59.5083C11.767 56.1434 14.5046 53.4061 17.8692 53.4061C21.2338 53.4061 23.9707 56.1438 23.9707 59.5083C23.9707 64.6924 20.254 70.1132 17.8692 73.0579Z" fill="#4997D3"/>
<path id="Vector_3" d="M61.8965 32.1179C62.6033 32.1179 63.3101 31.8483 63.8494 31.3094C64.2446 30.9146 73.528 21.5222 73.528 11.6266C73.528 5.21572 68.31 0 61.8965 0C55.4853 0 50.2696 5.21572 50.2696 11.6263C50.2696 21.5214 59.5482 30.9138 59.9437 31.3087C60.4826 31.8483 61.1894 32.1179 61.8965 32.1179ZM61.8965 5.52473C65.2641 5.52473 68.0032 8.26206 68.0032 11.6263C68.0032 16.8107 64.2832 22.2323 61.8969 25.1766C59.5117 22.2323 55.7943 16.811 55.7943 11.6263C55.7939 8.26206 58.5316 5.52473 61.8965 5.52473Z" fill="#4997D3"/>
</g>
</g>
</svg>
