<svg width="7" height="5" viewBox="0 0 7 5" fill="none" xmlns="http://www.w3.org/2000/svg">
<path id="Vector" d="M4.10864 0.387834C3.6833 0.310499 2.56197 0.284721 2.43308 0.387834C2.30419 0.490946 2.05928 0.413628 1.93039 0.787411C1.8015 1.16119 1.55657 1.08385 1.32457 1.16118C1.09257 1.23852 0.976621 1.29008 0.899287 1.43186C0.821953 1.56075 0.55128 1.67675 0.654392 1.72831C0.757505 1.77986 0.976558 1.77985 1.157 1.85718C1.33745 1.93452 1.47926 2.17942 1.4277 2.30831C1.37615 2.4372 0.976596 2.75942 0.873483 2.81098C0.770371 2.86254 0.422324 3.03011 0.34499 3.18477C0.267656 3.33944 0.0485654 3.61011 0.125899 3.68745C0.203233 3.76478 0.525474 3.81633 0.70592 3.84211C0.886366 3.86789 1.28592 3.86788 1.50503 3.91944C1.72414 3.971 2.25256 3.59721 2.27834 3.89366C2.30412 4.1901 2.40726 4.29323 2.54904 4.47368C2.67793 4.65413 2.97442 4.47367 3.07753 4.60256C3.18064 4.73145 3.39975 4.73145 3.47709 4.70567C3.55442 4.67989 4.03129 4.28034 4.17306 4.12567C4.30195 3.971 4.72725 3.64877 4.77881 3.48122C4.83037 3.32655 4.99795 3.05588 5.12684 2.97855C5.25573 2.90121 5.578 2.63054 5.578 2.63054C5.578 2.63054 5.75839 2.25674 5.75839 2.17941C5.75839 2.10208 5.91306 1.45764 6.00328 1.50919C6.08061 1.56075 6.42864 1.35451 6.42864 1.35451C6.42864 1.35451 5.926 0.954958 5.90023 0.877624C5.87445 0.800289 4.99796 0.452294 4.89485 0.50385C4.79173 0.555406 4.62421 0.555397 4.52109 0.555397C4.41798 0.555397 4.12154 0.374952 4.12154 0.374952L4.10864 0.387834Z" fill="white"/>
</svg>
